<?xml version="1.0" encoding="UTF-8"?>
<svg version="1.1" xmlns="http://www.w3.org/2000/svg" width="500" height="500">
<path d="M0 0 C165 0 330 0 500 0 C500 165 500 330 500 500 C335 500 170 500 0 500 C0 335 0 170 0 0 Z " fill="#FEFEFE" transform="translate(0,0)"/>
<path d="M0 0 C1.85735146 0.42265773 3.71470523 0.84530539 5.57211304 1.26771545 C8.90352047 2.02710494 12.23308029 2.79445067 15.5625 3.5625 C16.83448242 3.85519775 18.10646484 4.14789551 19.41699219 4.44946289 C26.35855787 6.07071386 33.20711385 7.83508221 40 10 C37.40501625 12.59498375 35.47578231 12.73885053 31.8984375 13.5078125 C30.68671875 13.77207031 29.475 14.03632813 28.2265625 14.30859375 C26.32003906 14.71271484 26.32003906 14.71271484 24.375 15.125 C22.456875 15.54072266 22.456875 15.54072266 20.5 15.96484375 C17.33476072 16.64985822 14.1675564 17.32578117 11 18 C11 25.92 11 33.84 11 42 C4 46 4 46 -9 49 C-9 65.5 -9 82 -9 99 C-14.61 99 -20.22 99 -26 99 C-26 82.83 -26 66.66 -26 50 C-29.96 49.67 -33.92 49.34 -38 49 C-41.83984375 48.09765625 -41.83984375 48.09765625 -44.9375 47.0625 C-45.97777344 46.72347656 -47.01804688 46.38445312 -48.08984375 46.03515625 C-50.75068031 45.08868418 -53.37783641 44.04886544 -56 43 C-56 34.75 -56 26.5 -56 18 C-59.3 17.34 -62.6 16.68 -66 16 C-66.19586817 19.35386571 -66.38194823 22.7078036 -66.5625 26.0625 C-66.61857422 27.00544922 -66.67464844 27.94839844 -66.73242188 28.91992188 C-67.08066417 35.58295775 -66.80973822 41.5366492 -65 48 C-66.485 47.505 -66.485 47.505 -68 47 C-68.66 47.99 -69.32 48.98 -70 50 C-70.66 50 -71.32 50 -72 50 C-72.495 48.515 -72.495 48.515 -73 47 C-74.98 47.495 -74.98 47.495 -77 48 C-77 47.01 -77 46.02 -77 45 C-76.01 44.34 -75.02 43.68 -74 43 C-72.04320335 37.68187669 -71.4668653 32.36587541 -70.9375 26.75 C-70.78295874 25.1611626 -70.62552569 23.57260313 -70.46484375 21.984375 C-70.399021 21.29053711 -70.33319824 20.59669922 -70.26538086 19.88183594 C-70 18 -70 18 -69 15 C-70.14339844 14.80664062 -71.28679687 14.61328125 -72.46484375 14.4140625 C-73.95581037 14.15150234 -75.44669149 13.88845639 -76.9375 13.625 C-77.69224609 13.49867188 -78.44699219 13.37234375 -79.22460938 13.2421875 C-81.16283135 12.89452437 -83.08379205 12.45356496 -85 12 C-85.33 11.34 -85.66 10.68 -86 10 C-79.97215224 8.48679865 -73.94389826 6.97522943 -67.9152832 5.46508789 C-65.86992687 4.95250154 -63.82467689 4.43949064 -61.77954102 3.92602539 C-39.18338808 -1.74648721 -22.99657296 -5.30718184 0 0 Z " fill="#010101" transform="translate(162,163)"/>
<path d="M0 0 C30 0 30 0 40 5 C43.71366839 8.80424567 45.13916988 11.96709753 45.25 17.25 C45.17488168 23.0247206 43.74060143 27.06047269 39.8125 31.4375 C39.214375 31.953125 38.61625 32.46875 38 33 C38.60328125 33.36351562 39.2065625 33.72703125 39.828125 34.1015625 C48.8034222 39.74731397 48.8034222 39.74731397 51 45 C51.73114651 51.65683392 52.1782689 58.4289748 48 64 C43.10043737 69.01621888 40.23078865 69.58973712 33 72 C22.11 72 11.22 72 0 72 C0 48.24 0 24.48 0 0 Z " fill="#070707" transform="translate(228,190)"/>
<path d="M0 0 C9.85479418 4.52256399 18.28579579 6.48292774 29.125 6.3125 C30.15753906 6.31572266 31.19007813 6.31894531 32.25390625 6.32226562 C38.15985143 6.28088639 43.37894599 5.79601114 49 4 C49.8962207 3.71970947 50.79244141 3.43941895 51.71582031 3.15063477 C54.83706878 2.15896172 57.94976432 1.14305486 61.0625 0.125 C88.93801853 -8.85230902 88.93801853 -8.85230902 99 -8 C99 -7.34 99 -6.68 99 -6 C97.98808594 -5.66871094 96.97617187 -5.33742188 95.93359375 -4.99609375 C83.47992951 -0.73513787 71.82786413 4.79695411 60.11694336 10.75610352 C42.15281721 19.80103883 21.12023658 23.07399557 1.38183594 17.81835938 C-4.15382054 15.9163995 -9.28171941 12.99740948 -14.30639648 10.02441406 C-25.33301356 3.61981737 -36.43018535 2.5140754 -49 2.6875 C-50.16789062 2.68427734 -51.33578125 2.68105469 -52.5390625 2.67773438 C-62.98536004 2.74143131 -73.07734787 3.9454436 -83.125 6.875 C-91.35333083 9.16589086 -99.66926727 10.89674986 -108.03979492 12.58276367 C-110.03999346 13.00851274 -112.01910404 13.49253887 -114 14 C-110.36819787 9.56558966 -105.75909018 7.83153592 -100.625 5.625 C-99.28296509 5.0379126 -99.28296509 5.0379126 -97.91381836 4.43896484 C-96.11230513 3.65218613 -94.30918036 2.86908619 -92.50439453 2.08984375 C-90.33379537 1.14525858 -88.17818395 0.17598076 -86.02734375 -0.8125 C-78.45379824 -4.22785311 -71.16420805 -6.49441608 -63 -8 C-62.28730957 -8.13535156 -61.57461914 -8.27070313 -60.84033203 -8.41015625 C-38.41610583 -12.62805773 -20.6135662 -9.87160781 0 0 Z " fill="#070707" transform="translate(383,285)"/>
<path d="M0 0 C3.8116223 2.87059834 6.79752649 6.29400897 8.19140625 10.8671875 C9.10941066 18.73579674 9.27991965 26.42774134 4.19140625 32.8671875 C-1.06848192 38.68635492 -6.74699236 41.48280882 -14.5234375 42.21875 C-23.67412279 42.6721427 -31.31900102 41.71721603 -38.41796875 35.4453125 C-43.75579612 29.60510138 -45.41187929 23.2772567 -45.1484375 15.57421875 C-44.2446624 8.3751826 -40.47958925 3.80403801 -34.9296875 -0.65625 C-24.28417511 -8.06693818 -10.68600095 -6.69317554 0 0 Z " fill="#050505" transform="translate(485.80859375,221.1328125)"/>
<path d="M0 0 C4.53943349 2.96846182 7.94060775 6.54771476 9.55859375 11.8203125 C11.34497474 20.64155668 9.86971523 27.65194662 4.9375 35.125 C-0.20603749 40.75263513 -6.33678242 43.19598374 -13.90917969 43.54345703 C-22.18551845 43.61883704 -29.67979913 42.79531665 -36.08984375 37.1640625 C-42.16677402 30.67703264 -43.54895104 24.75327755 -43.375 15.96875 C-42.506663 9.09441539 -38.09731593 4.40464274 -32.79296875 0.25390625 C-23.02415287 -6.57788002 -10.18452396 -5.77685705 0 0 Z " fill="#050505" transform="translate(370,220)"/>
<path d="M0 0 C16.83 0 33.66 0 51 0 C51 4.95 51 9.9 51 15 C45.39 15 39.78 15 34 15 C34 33.81 34 52.62 34 72 C28.39 72 22.78 72 17 72 C17 53.19 17 34.38 17 15 C11.39 15 5.78 15 0 15 C0 10.05 0 5.1 0 0 Z " fill="#0A0A0A" transform="translate(10,190)"/>
<path d="M0 0 C4.39644814 2.67541862 6.98032184 6.29254411 9.5703125 10.6484375 C10.52943744 14.77267474 10.1953125 19.10164258 10.1953125 23.3359375 C-0.3646875 23.3359375 -10.9246875 23.3359375 -21.8046875 23.3359375 C-20.53526243 29.0769129 -20.53526243 29.0769129 -17.953125 30.6875 C-13.66789026 31.98086176 -9.01866699 32.37303584 -4.88671875 30.4375 C-3.06061798 29.25274434 -3.06061798 29.25274434 -0.8046875 27.3359375 C4.1453125 29.8109375 4.1453125 29.8109375 9.1953125 32.3359375 C6.5717213 37.5831199 4.00712392 40.36292766 -1.1796875 43.1484375 C-8.3014145 45.46839402 -16.78952924 45.84942332 -23.8203125 43.19921875 C-30.50325569 39.38754007 -35.33629829 34.75179081 -37.8046875 27.3359375 C-38.65887459 20.31362049 -38.77383169 13.94228994 -34.4296875 8.1171875 C-24.71310987 -2.53367644 -13.76588742 -6.24112581 0 0 Z " fill="#070707" transform="translate(210.8046875,218.6640625)"/>
<path d="M0 0 C4.95 0 9.9 0 15 0 C15.03738281 1.80726563 15.07476562 3.61453125 15.11328125 5.4765625 C15.17894987 7.85939544 15.2453969 10.24220702 15.3125 12.625 C15.33505859 13.81480469 15.35761719 15.00460938 15.38085938 16.23046875 C15.52887889 24.61218417 15.52887889 24.61218417 19 32 C21.80915474 33.40457737 23.88810534 33.24895157 27 33 C30.1359157 31.22015595 30.84102736 30.47691793 32 27 C32.15029988 24.93637009 32.24844448 22.86876085 32.31640625 20.80078125 C32.37924805 18.98803711 32.37924805 18.98803711 32.44335938 17.13867188 C32.48267578 15.87603516 32.52199219 14.61339844 32.5625 13.3125 C32.62727539 11.40114258 32.62727539 11.40114258 32.69335938 9.45117188 C32.79954789 6.30091273 32.90028813 3.1504708 33 0 C37.95 0 42.9 0 48 0 C48.06917426 4.42971461 48.12881128 8.85752753 48.16479492 13.28735352 C48.17980722 14.79165017 48.20022353 16.29590361 48.22631836 17.80004883 C48.26303816 19.97227696 48.27980161 22.14392251 48.29296875 24.31640625 C48.3086792 25.62037354 48.32438965 26.92434082 48.34057617 28.26782227 C47.82235689 33.9466883 46.29784754 37.70215246 42.1875 41.8125 C36.18365699 45.93278442 30.68953728 46.36389224 23.625 46.375 C22.81289062 46.39949219 22.00078125 46.42398438 21.1640625 46.44921875 C14.13308071 46.48302155 9.18085922 44.42749782 3.625 40.1875 C-0.0439303 35.24855537 -0.24476922 29.49469149 -0.1953125 23.53515625 C-0.1924826 22.85698349 -0.18965271 22.17881073 -0.18673706 21.48008728 C-0.17565416 19.34070234 -0.1505736 17.2017557 -0.125 15.0625 C-0.11495476 13.60091756 -0.10583163 12.13932847 -0.09765625 10.67773438 C-0.07746598 7.11819004 -0.03829791 3.55957829 0 0 Z " fill="#040404" transform="translate(66,217)"/>
<path d="M0 0 C2.17979085 0.54438943 4.3605052 1.0849739 6.54125977 1.62548828 C7.93389506 1.97291543 9.32647537 2.3205631 10.71899414 2.66845703 C11.96640381 2.97928223 13.21381348 3.29010742 14.49902344 3.61035156 C17.45727539 4.41064453 17.45727539 4.41064453 19.45727539 5.41064453 C19.45727539 6.07064453 19.45727539 6.73064453 19.45727539 7.41064453 C18.15983398 7.63107422 18.15983398 7.63107422 16.83618164 7.85595703 C7.99396907 9.4307216 -0.74363857 11.32685375 -9.48022461 13.41064453 C-11.05984985 13.78406982 -11.05984985 13.78406982 -12.67138672 14.16503906 C-17.3061955 15.28478481 -21.8154581 16.46339429 -26.29663086 18.09814453 C-34.4156351 20.85550781 -40.94857862 19.00401198 -48.85522461 16.53564453 C-56.03433132 14.3812224 -63.09662707 12.42205825 -70.54272461 11.41064453 C-67.35387912 9.28474754 -65.61807173 8.93101169 -61.88647461 8.37548828 C-60.78174805 8.20597656 -59.67702148 8.03646484 -58.53881836 7.86181641 C-57.38510742 7.69230469 -56.23139648 7.52279297 -55.04272461 7.34814453 C-52.76114624 7.00527046 -50.47987956 6.66031395 -48.19897461 6.31298828 C-47.18641602 6.16337646 -46.17385742 6.01376465 -45.13061523 5.85961914 C-42.43872919 5.45898401 -42.43872919 5.45898401 -39.54272461 4.41064453 C-39.54272461 3.42064453 -39.54272461 2.43064453 -39.54272461 1.41064453 C-41.85272461 1.08064453 -44.16272461 0.75064453 -46.54272461 0.41064453 C-44.77736556 -2.59700422 -43.3355581 -5.05302693 -40.41772461 -7.02685547 C-27.60670478 -9.53335935 -12.4486159 -3.1125119 0 0 Z " fill="#020202" transform="translate(174.542724609375,167.58935546875)"/>
<path d="M0 0 C1.29550781 -0.02126953 1.29550781 -0.02126953 2.6171875 -0.04296875 C5.2491288 0.19890748 6.86480544 0.85766459 9.125 2.1875 C8.51754603 7.04713179 6.39741033 10.9280518 4.125 15.1875 C3.23296875 15.14109375 2.3409375 15.0946875 1.421875 15.046875 C0.25140625 15.01078125 -0.9190625 14.9746875 -2.125 14.9375 C-3.28515625 14.89109375 -4.4453125 14.8446875 -5.640625 14.796875 C-8.88973948 14.91486221 -8.88973948 14.91486221 -11.0390625 16.81835938 C-13.39508536 19.85863142 -13.41231301 21.66508979 -13.484375 25.484375 C-13.51660156 26.68964844 -13.54882812 27.89492187 -13.58203125 29.13671875 C-13.60330078 31.01810547 -13.60330078 31.01810547 -13.625 32.9375 C-13.66947266 34.84208984 -13.66947266 34.84208984 -13.71484375 36.78515625 C-13.78553034 39.91892836 -13.83253006 43.0532185 -13.875 46.1875 C-19.155 46.1875 -24.435 46.1875 -29.875 46.1875 C-29.875 31.3375 -29.875 16.4875 -29.875 1.1875 C-24.595 1.1875 -19.315 1.1875 -13.875 1.1875 C-13.545 2.8375 -13.215 4.4875 -12.875 6.1875 C-11.92625 5.383125 -10.9775 4.57875 -10 3.75 C-6.56324011 0.83622531 -4.54783095 0.03373762 0 0 Z " fill="#0B0B0B" transform="translate(315.875,215.8125)"/>
<path d="M0 0 C1.85735146 0.42265773 3.71470523 0.84530539 5.57211304 1.26771545 C8.90352047 2.02710494 12.23308029 2.79445067 15.5625 3.5625 C16.83448242 3.85519775 18.10646484 4.14789551 19.41699219 4.44946289 C26.35855787 6.07071386 33.20711385 7.83508221 40 10 C36.41624224 13.58375776 30.86499859 13.92387761 25.9375 14.125 C25.298125 14.08375 24.65875 14.0425 24 14 C27.08809695 12.23537317 28.23312136 12 32 12 C32 11.34 32 10.68 32 10 C30.90945312 9.76925781 29.81890625 9.53851563 28.6953125 9.30078125 C20.69740256 7.58009752 12.79572189 5.71666092 4.9375 3.4375 C-1.03991812 1.72863856 -7.0112295 0.26073303 -13.125 -0.875 C-13.79926025 -1.00720947 -14.47352051 -1.13941895 -15.16821289 -1.27563477 C-20.09520056 -2.13220936 -24.13917257 -1.96905622 -29 -1 C-31.5203963 1.39577929 -31.5203963 1.39577929 -33 4 C-32.030625 4.2475 -31.06125 4.495 -30.0625 4.75 C-29.051875 5.1625 -28.04125 5.575 -27 6 C-26.30859375 8.078125 -26.30859375 8.078125 -26 10 C-39.30384172 12.28951384 -52.58113579 14.50024459 -66 16 C-66.19875508 19.3535976 -66.38195217 22.70787681 -66.5625 26.0625 C-66.61857422 27.00544922 -66.67464844 27.94839844 -66.73242188 28.91992188 C-67.08066417 35.58295775 -66.80973822 41.5366492 -65 48 C-66.485 47.505 -66.485 47.505 -68 47 C-68.66 47.99 -69.32 48.98 -70 50 C-70.66 50 -71.32 50 -72 50 C-72.495 48.515 -72.495 48.515 -73 47 C-74.98 47.495 -74.98 47.495 -77 48 C-77 47.01 -77 46.02 -77 45 C-76.01 44.34 -75.02 43.68 -74 43 C-72.04320335 37.68187669 -71.4668653 32.36587541 -70.9375 26.75 C-70.78295874 25.1611626 -70.62552569 23.57260313 -70.46484375 21.984375 C-70.399021 21.29053711 -70.33319824 20.59669922 -70.26538086 19.88183594 C-70 18 -70 18 -69 15 C-70.14339844 14.80664062 -71.28679687 14.61328125 -72.46484375 14.4140625 C-73.95581037 14.15150234 -75.44669149 13.88845639 -76.9375 13.625 C-77.69224609 13.49867188 -78.44699219 13.37234375 -79.22460938 13.2421875 C-81.16283135 12.89452437 -83.08379205 12.45356496 -85 12 C-85.33 11.34 -85.66 10.68 -86 10 C-79.97215224 8.48679865 -73.94389826 6.97522943 -67.9152832 5.46508789 C-65.86992687 4.95250154 -63.82467689 4.43949064 -61.77954102 3.92602539 C-39.18338808 -1.74648721 -22.99657296 -5.30718184 0 0 Z " fill="#110E0B" transform="translate(162,163)"/>
<path d="M0 0 C0 16.5 0 33 0 50 C-4.95 50 -9.9 50 -15 50 C-15 33.83 -15 17.66 -15 1 C-4 0 -4 0 0 0 Z " fill="#000000" transform="translate(152,212)"/>
<path d="M0 0 C4.95 0 9.9 0 15 0 C15 14.52 15 29.04 15 44 C10.05 44 5.1 44 0 44 C0 29.48 0 14.96 0 0 Z " fill="#000000" transform="translate(418,218)"/>
<path d="M0 0 C2.6258382 1.78870171 3.34201385 3.11189509 5 6 C5.55263322 9.93751167 5.36220775 12.18503256 3.75 15.8125 C1.81803152 18.2274606 0.95224902 19.12230435 -2 20 C-7.14649682 20.57183298 -7.14649682 20.57183298 -10 20 C-13.883836 16.85987727 -15.8023937 14.71258797 -16.375 9.75 C-15.88072704 4.80727042 -14.46171699 3.46171699 -11 0 C-7.46077805 -1.76961098 -3.72473277 -1.03393444 0 0 Z " fill="#F5F5F5" transform="translate(359,230)"/>
<path d="M0 0 C3.63417034 0.02609817 4.16324437 0.30485715 7.1875 2.75 C10.40344743 6.843024 10.60404288 9.15286753 10.25 14.375 C8.59860695 17.9136994 7.53394771 19.18570153 4.25 21.375 C-2.65258449 22.04299205 -2.65258449 22.04299205 -6.625 19.625 C-9.86931699 16.18984084 -10.77497233 14.74847797 -10.6875 9.9375 C-9.58343994 5.74207178 -8.01274431 4.14833266 -4.75 1.375 C-3.75 0.375 -3.75 0.375 0 0 Z " fill="#F5F5F5" transform="translate(467.75,228.625)"/>
<path d="M0 0 C2.86262257 2.00992648 4.64014872 3.43748788 5.4453125 6.93359375 C5.66317186 10.77518043 5.2331958 12.63465991 3.125 15.9375 C0.20157849 18.77493852 -0.63926349 18.96451772 -4.8125 19.375 C-8.16084564 19.30791111 -9.03191618 18.97938747 -12 17.0625 C-14.33404981 13.48848623 -14.72378951 11.35230332 -14.5 7.15625 C-13.70000747 3.70628222 -11.74407005 2.09072004 -9 0 C-5.77509551 -1.61245225 -3.43772273 -0.81573082 0 0 Z " fill="#080808" transform="translate(402,244)"/>
<path d="M0 0 C-0.33 1.98 -0.66 3.96 -1 6 C-2.30324219 6.25523437 -2.30324219 6.25523437 -3.6328125 6.515625 C-13.14455627 8.51585747 -18.93950611 10.81841799 -24.67578125 18.828125 C-26.66482904 22.09039806 -27.83236718 25.36736456 -29 29 C-30.98 29 -32.96 29 -35 29 C-34.72611387 20.3725869 -32.01840114 15.28010373 -26.140625 9.01953125 C-18.15498183 1.52899795 -10.85538911 -0.73045609 0 0 Z " fill="#B18724" transform="translate(75,268)"/>
<path d="M0 0 C0.495 1.485 0.495 1.485 1 3 C-12.30384172 5.28951384 -25.58113579 7.50024459 -39 9 C-39.19875508 12.3535976 -39.38195217 15.70787681 -39.5625 19.0625 C-39.61857422 20.00544922 -39.67464844 20.94839844 -39.73242188 21.91992188 C-40.08066417 28.58295775 -39.80973822 34.5366492 -38 41 C-38.99 40.67 -39.98 40.34 -41 40 C-41.66 40.99 -42.32 41.98 -43 43 C-43.66 43 -44.32 43 -45 43 C-45.495 41.515 -45.495 41.515 -46 40 C-47.98 40.495 -47.98 40.495 -50 41 C-50 40.01 -50 39.02 -50 38 C-49.01 37.34 -48.02 36.68 -47 36 C-45.04320335 30.68187669 -44.4668653 25.36587541 -43.9375 19.75 C-43.78295874 18.1611626 -43.62552569 16.57260313 -43.46484375 14.984375 C-43.399021 14.29053711 -43.33319824 13.59669922 -43.26538086 12.88183594 C-43 11 -43 11 -42 8 C-42.66 7.67 -43.32 7.34 -44 7 C-38.25096813 4.70434528 -32.4124811 4.18488375 -26.3125 3.5 C-19.23924651 2.69086604 -12.25456089 1.75911445 -5.26635742 0.38476562 C-3 0 -3 0 0 0 Z " fill="#B39C4A" transform="translate(135,170)"/>
<path d="M0 0 C4.81826218 0.84530916 6.34029694 1.93125503 9.5625 5.625 C10.33402986 9.94556721 10.08997866 11.81619939 7.6875 15.5 C5.17583682 18.01166318 4.26865837 18.54653796 0.75 18.9375 C-3.1682645 18.55335642 -4.65043267 17.33243683 -7.4375 14.625 C-9.00685594 11.48628812 -8.78951103 9.08644178 -8.4375 5.625 C-5.86890902 1.96670376 -4.41498801 0.80272509 0 0 Z " fill="#080808" transform="translate(425.4375,189.375)"/>
<path d="M0 0 C6.91671484 -0.37387648 10.6657877 -0.51356426 16 4 C17 5 17 5 17.25 8.3125 C16.99178534 12.12116621 16.69676259 13.40311751 14 16 C9.36297289 17.5456757 4.87528349 17.05735628 0 17 C0 11.39 0 5.78 0 0 Z " fill="#F5F5F5" transform="translate(245,232)"/>
<path d="M0 0 C0.95628296 0.25982666 0.95628296 0.25982666 1.93188477 0.52490234 C2.59502686 0.71004395 3.25816895 0.89518555 3.94140625 1.0859375 C4.68471191 1.29323486 5.42801758 1.50053223 6.19384766 1.71411133 C6.97550293 1.93220459 7.7571582 2.15029785 8.5625 2.375 C9.7697876 2.70890747 9.7697876 2.70890747 11.00146484 3.04956055 C14.45872261 4.00636236 17.90928622 4.97300815 21.34765625 5.99609375 C22.72244141 6.40021484 22.72244141 6.40021484 24.125 6.8125 C24.89070313 7.04582031 25.65640625 7.27914062 26.4453125 7.51953125 C33.97125859 8.93496148 40.02021638 7.4116265 47.1875 5.1875 C49.04882588 4.63451505 50.91080595 4.08372723 52.7734375 3.53515625 C53.66901367 3.26977051 54.56458984 3.00438477 55.48730469 2.73095703 C63.30421113 0.4569755 70.80850674 -1.48185254 79 -1 C75 1 75 1 66 3 C66 10.92 66 18.84 66 27 C64.35 27.66 62.7 28.32 61 29 C61.33 28.34 61.66 27.68 62 27 C62.66 27 63.32 27 64 27 C64 19.08 64 11.16 64 3 C61.97875 3.5775 59.9575 4.155 57.875 4.75 C57.19542236 4.94271484 56.51584473 5.13542969 55.81567383 5.33398438 C52.60041215 6.24651209 49.39708577 7.18341481 46.19921875 8.15625 C44.99910156 8.5171875 43.79898438 8.878125 42.5625 9.25 C41.47066406 9.58515625 40.37882812 9.9203125 39.25390625 10.265625 C31.58972206 11.99535685 25.30308408 10.2435292 17.9375 8.125 C16.97005859 7.85558594 16.00261719 7.58617187 15.00585938 7.30859375 C10.28508496 5.98380421 5.65650832 4.55216944 1 3 C1 11.25 1 19.5 1 28 C0.34 28 -0.32 28 -1 28 C-1 19.75 -1 11.5 -1 3 C-3.31 2.34 -5.62 1.68 -8 1 C-4.82026505 -0.93055336 -3.50689341 -1.0433262 0 0 Z " fill="#252525" transform="translate(107,178)"/>
<path d="M0 0 C-2 2 -2 2 -15 5 C-15 21.5 -15 38 -15 55 C-15.33 55 -15.66 55 -16 55 C-16 38.5 -16 22 -16 5 C-17.32 5.33 -18.64 5.66 -20 6 C-23.63 6 -27.26 6 -31 6 C-31 22.17 -31 38.34 -31 55 C-31.33 55 -31.66 55 -32 55 C-32 38.83 -32 22.66 -32 6 C-35.96 5.67 -39.92 5.34 -44 5 C-45.32 4.34 -46.64 3.68 -48 3 C-46.87525269 3.01571045 -46.87525269 3.01571045 -45.7277832 3.03173828 C-42.25605769 3.07389095 -38.78438633 3.09951158 -35.3125 3.125 C-34.13365234 3.14175781 -32.95480469 3.15851563 -31.74023438 3.17578125 C-20.99404362 3.23466449 -10.44392803 -0.28226833 0 0 Z " fill="#484848" transform="translate(168,207)"/>
<path d="M0 0 C8.25 0 16.5 0 25 0 C24.34 1.32 23.68 2.64 23 4 C23.66 4.33 24.32 4.66 25 5 C24.01 5.495 24.01 5.495 23 6 C22.01 5.67 21.02 5.34 20 5 C19.29875 5.639375 18.5975 6.27875 17.875 6.9375 C13.9045221 9.78588632 10.74303068 9.6959882 6 9 C3 7.875 3 7.875 1 6 C0.67 4.02 0.34 2.04 0 0 Z " fill="#F5F5F5" transform="translate(189,242)"/>
<path d="M0 0 C-0.33 1.98 -0.66 3.96 -1 6 C-1.59167969 6.15855469 -2.18335937 6.31710937 -2.79296875 6.48046875 C-8.0761065 8.04041644 -11.49073689 9.53366513 -15 14 C-16.319018 16.66533035 -16.319018 16.66533035 -17 19 C-18.98 19 -20.96 19 -23 19 C-22.63943206 13.11072364 -21.22188636 9.22188636 -17 5 C-11.42087134 0.78111604 -6.93401565 -0.63036506 0 0 Z " fill="#B18728" transform="translate(74,279)"/>
<path d="M0 0 C1.85735146 0.42265773 3.71470523 0.84530539 5.57211304 1.26771545 C8.90352047 2.02710494 12.23308029 2.79445067 15.5625 3.5625 C16.83448242 3.85519775 18.10646484 4.14789551 19.41699219 4.44946289 C26.35855787 6.07071386 33.20711385 7.83508221 40 10 C36.41624224 13.58375776 30.86499859 13.92387761 25.9375 14.125 C25.298125 14.08375 24.65875 14.0425 24 14 C27.08809695 12.23537317 28.23312136 12 32 12 C32 11.34 32 10.68 32 10 C30.90945312 9.76925781 29.81890625 9.53851563 28.6953125 9.30078125 C20.69740256 7.58009752 12.79572189 5.71666092 4.9375 3.4375 C-1.03991812 1.72863856 -7.0112295 0.26073303 -13.125 -0.875 C-14.13639038 -1.07331421 -14.13639038 -1.07331421 -15.16821289 -1.27563477 C-23.6244428 -2.74578086 -31.30727835 -0.55543175 -39.53515625 1.37890625 C-43.09716118 2.01741672 -46.38930022 2.1057912 -50 2 C-34.23725528 -7.16054798 -16.62311686 -3.83630657 0 0 Z " fill="#3E3F3E" transform="translate(162,163)"/>
<path d="M0 0 C-0.33 0.66 -0.66 1.32 -1 2 C-3.31 2 -5.62 2 -8 2 C-8 2.66 -8 3.32 -8 4 C-5.36 4 -2.72 4 0 4 C0 4.33 0 4.66 0 5 C-0.6290625 5.08636719 -1.258125 5.17273438 -1.90625 5.26171875 C-8.06597761 6.27287886 -13.32657628 7.68357392 -18 12 C-19.70309227 14.54956968 -20.86095221 17.16365822 -22 20 C-22.65640522 21.33841489 -23.32036328 22.67323093 -24 24 C-24.33 22.35 -24.66 20.7 -25 19 C-25.66 20.98 -26.32 22.96 -27 25 C-29.31 25 -31.62 25 -34 25 C-34 24.34 -34 23.68 -34 23 C-32.02 23 -30.04 23 -28 23 C-27.95875 22.195625 -27.9175 21.39125 -27.875 20.5625 C-26.06811881 13.20591229 -21.24400704 7.16267136 -15 3 C-10.01764778 0.78262883 -5.50125347 -0.42317334 0 0 Z " fill="#F9F2D8" transform="translate(74,274)"/>
<path d="M0 0 C7 0 7 0 9.9375 1.625 C12 4 12 4 12.5 7 C11.70175439 11.78947368 11.70175439 11.78947368 9 14 C5.96657425 14.64003132 3.11366719 14.81949755 0 15 C0 10.05 0 5.1 0 0 Z " fill="#F9F9F9" transform="translate(245,203)"/>
<path d="M0 0 C-1 3 -1 3 -3 4 C-2.01 4.33 -1.02 4.66 0 5 C1.3260274 10.42465753 1.3260274 10.42465753 -0.0625 12.875 C-2.79635957 14.46240233 -4.89439827 14.26430653 -8 14 C-8.66 13.67 -9.32 13.34 -10 13 C-10.625 9.9375 -10.625 9.9375 -11 7 C-11.66 7 -12.32 7 -13 7 C-13.33 8.98 -13.66 10.96 -14 13 C-14.66 13 -15.32 13 -16 13 C-15.49430263 8.57514805 -14.10058108 6.18438057 -11 3 C-7.1961651 0.65295294 -4.47413897 -0.39477697 0 0 Z " fill="#F7EECF" transform="translate(73,285)"/>
<path d="M0 0 C0.495 1.485 0.495 1.485 1 3 C-24.9701529 7.5691466 -24.9701529 7.5691466 -36 8 C-36 7.34 -36 6.68 -36 6 C-36.66 5.67 -37.32 5.34 -38 5 C-37.33057373 4.91959473 -36.66114746 4.83918945 -35.97143555 4.75634766 C-32.87636991 4.38262601 -29.78194351 4.00383711 -26.6875 3.625 C-25.63498047 3.49867188 -24.58246094 3.37234375 -23.49804688 3.2421875 C-17.36846534 2.48777747 -11.31420057 1.56915922 -5.25317383 0.38037109 C-3 0 -3 0 0 0 Z " fill="#A28637" transform="translate(135,170)"/>
<path d="M0 0 C2.9375 2.375 2.9375 2.375 5 5 C5 5.66 5 6.32 5 7 C-0.28 7 -5.56 7 -11 7 C-10.67 5.35 -10.34 3.7 -10 2 C-6.24952518 -0.50031654 -4.44143734 -0.53603554 0 0 Z " fill="#F3F3F3" transform="translate(201,226)"/>
<path d="M0 0 C-4 2 -4 2 -13 4 C-13 11.92 -13 19.84 -13 28 C-14.65 28.66 -16.3 29.32 -18 30 C-17.67 29.34 -17.34 28.68 -17 28 C-16.34 28 -15.68 28 -15 28 C-15 20.08 -15 12.16 -15 4 C-16.65 4.33 -18.3 4.66 -20 5 C-15.08699134 -0.65693426 -6.98259698 -0.25391262 0 0 Z " fill="#383838" transform="translate(186,177)"/>
<path d="M0 0 C1.49080078 0.02707031 1.49080078 0.02707031 3.01171875 0.0546875 C3.77097656 0.07789063 4.53023437 0.10109375 5.3125 0.125 C4.9825 2.105 4.6525 4.085 4.3125 6.125 C3.00925781 6.38023437 3.00925781 6.38023437 1.6796875 6.640625 C-4.62937161 7.96736226 -9.64942402 9.04007353 -14.6875 13.125 C-15.6775 13.62 -15.6775 13.62 -16.6875 14.125 C-15.17985345 9.90358966 -12.47457131 8.32150136 -8.6875 6.125 C-5.11491497 4.74206386 -1.47970643 5.05207295 2.3125 5.125 C2.3125 3.805 2.3125 2.485 2.3125 1.125 C-3.1325 1.62 -3.1325 1.62 -8.6875 2.125 C-5.26655758 -0.15562828 -4.00562778 -0.09425007 0 0 Z " fill="#A98D38" transform="translate(69.6875,267.875)"/>
<path d="M0 0 C1.0621875 0.26554688 2.124375 0.53109375 3.21875 0.8046875 C4.24742187 1.06185547 4.24742187 1.06185547 5.296875 1.32421875 C6.02390625 1.50597656 6.7509375 1.68773437 7.5 1.875 C8.19609375 2.04902344 8.8921875 2.22304687 9.609375 2.40234375 C12.51171875 3.12792969 15.4140625 3.85351562 18.31640625 4.57910156 C19.04730469 4.76182617 19.77820313 4.94455078 20.53125 5.1328125 C21.6759375 5.41898438 22.820625 5.70515625 24 6 C20.41624224 9.58375776 14.86499859 9.92387761 9.9375 10.125 C9.298125 10.08375 8.65875 10.0425 8 10 C11.08809695 8.23537317 12.23312136 8 16 8 C16 7.34 16 6.68 16 6 C10.72 4.68 5.44 3.36 0 2 C0 1.34 0 0.68 0 0 Z " fill="#474747" transform="translate(178,167)"/>
<path d="M0 0 C-2 3 -2 3 -5 4 C-9.83105392 4.27345588 -13.49302254 3.75882047 -18 2 C-12.11916915 -1.9205539 -6.72139044 -0.84833083 0 0 Z " fill="#070406" transform="translate(102,172)"/>
<path d="M0 0 C4.55555556 0.55555556 4.55555556 0.55555556 6 2 C6.125 4.5 6.125 4.5 6 7 C5 8 5 8 2 8.125 C-1 8 -1 8 -2 7 C-2.1875 4.5625 -2.1875 4.5625 -2 2 C-1.34 1.34 -0.68 0.68 0 0 Z " fill="#AA8A41" transform="translate(66,291)"/>
<path d="M0 0 C0 3.64161995 -0.98581977 5.01602929 -3 8 C-3.495 8.44988281 -3.99 8.89976562 -4.5 9.36328125 C-6.33321935 11.3635909 -6.90101263 13.10332723 -7.6875 15.6875 C-8.06455078 16.89986328 -8.06455078 16.89986328 -8.44921875 18.13671875 C-8.63097656 18.75160156 -8.81273437 19.36648438 -9 20 C-7.68 20 -6.36 20 -5 20 C-5 20.66 -5 21.32 -5 22 C-6.98 22 -8.96 22 -11 22 C-10.71818815 13.12292658 -7.60195242 7.88631708 -1.625 1.4375 C-1.08875 0.963125 -0.5525 0.48875 0 0 Z " fill="#AD8F40" transform="translate(51,275)"/>
<path d="M0 0 C0.66 0 1.32 0 2 0 C2.67119549 1.4562545 3.33681807 2.91507867 4 4.375 C4.556875 5.59316406 4.556875 5.59316406 5.125 6.8359375 C6 9 6 9 6 11 C5.01 10.67 4.02 10.34 3 10 C2.01 11.485 2.01 11.485 1 13 C0.34 13 -0.32 13 -1 13 C-1.02686553 11.02090602 -1.04633375 9.04171029 -1.0625 7.0625 C-1.07410156 5.96035156 -1.08570312 4.85820312 -1.09765625 3.72265625 C-1 1 -1 1 0 0 Z " fill="#C89927" transform="translate(91,200)"/>
<path d="M0 0 C2.19505282 0.92050602 3.38616281 2.02846223 4.9375 3.8125 C4.2775 3.8125 3.6175 3.8125 2.9375 3.8125 C2.9375 12.0625 2.9375 20.3125 2.9375 28.8125 C2.2775 28.8125 1.6175 28.8125 0.9375 28.8125 C0.9375 20.5625 0.9375 12.3125 0.9375 3.8125 C-1.3725 3.1525 -3.6825 2.4925 -6.0625 1.8125 C-3.8753711 0.48460031 -2.58529544 -0.23502686 0 0 Z " fill="#373737" transform="translate(105.0625,177.1875)"/>
<path d="M0 0 C0 0.66 0 1.32 0 2 C-2.31 2.66 -4.62 3.32 -7 4 C-2.545 4.99 -2.545 4.99 2 6 C2 6.33 2 6.66 2 7 C-3.83094895 7.21203451 -9.44413776 6.96947414 -15 5 C-15.33 4.34 -15.66 3.68 -16 3 C-14.08487728 2.49411853 -12.16783078 1.99551609 -10.25 1.5 C-8.64898437 1.08234375 -8.64898437 1.08234375 -7.015625 0.65625 C-4 0 -4 0 0 0 Z " fill="#4A4948" transform="translate(92,170)"/>
<path d="M0 0 C0.33 0.99 0.66 1.98 1 3 C0.278125 3.556875 -0.44375 4.11375 -1.1875 4.6875 C-3.97457299 6.97909334 -6.48641528 9.41459857 -9 12 C-9.75 9.8125 -9.75 9.8125 -10 7 C-7.55396009 3.10445496 -4.83763659 0 0 0 Z " fill="#B38213" transform="translate(58,273)"/>
<path d="M0 0 C0.33 0.99 0.66 1.98 1 3 C-0.72807318 3.33895656 -2.45751974 3.67091525 -4.1875 4 C-5.63189453 4.2784375 -5.63189453 4.2784375 -7.10546875 4.5625 C-9.7934206 4.96877612 -12.28771019 5.07933572 -15 5 C-14.67 4.01 -14.34 3.02 -14 2 C-12.22978678 1.663389 -10.45880326 1.33082707 -8.6875 1 C-7.70136719 0.814375 -6.71523437 0.62875 -5.69921875 0.4375 C-3 0 -3 0 0 0 Z " fill="#B39342" transform="translate(135,170)"/>
<path d="M0 0 C2.01822917 0.06510417 4.03645833 0.13020833 6.0546875 0.1953125 C5.7246875 2.1753125 5.3946875 4.1553125 5.0546875 6.1953125 C0.1046875 7.6803125 0.1046875 7.6803125 -4.9453125 9.1953125 C-4.9453125 8.2053125 -4.9453125 7.2153125 -4.9453125 6.1953125 C-0.4903125 5.7003125 -0.4903125 5.7003125 4.0546875 5.1953125 C4.0546875 4.2053125 4.0546875 3.2153125 4.0546875 2.1953125 C1.4146875 2.1953125 -1.2253125 2.1953125 -3.9453125 2.1953125 C-1.9453125 0.1953125 -1.9453125 0.1953125 0 0 Z " fill="#AC8F43" transform="translate(67.9453125,278.8046875)"/>
<path d="M0 0 C0.66 0.33 1.32 0.66 2 1 C1.34 1.66 0.68 2.32 0 3 C0.33 3.66 0.66 4.32 1 5 C-3.29 5.99 -7.58 6.98 -12 8 C-7.44569288 3.44569288 -7.44569288 3.44569288 -3.875 1.6875 C-2.85019531 1.16736328 -2.85019531 1.16736328 -1.8046875 0.63671875 C-1.20914062 0.42660156 -0.61359375 0.21648437 0 0 Z " fill="#272727" transform="translate(281,291)"/>
<path d="M0 0 C3.3 0 6.6 0 10 0 C10 0.66 10 1.32 10 2 C5.05 3.485 5.05 3.485 0 5 C-0.33 4.01 -0.66 3.02 -1 2 C-0.67 1.34 -0.34 0.68 0 0 Z " fill="#303030" transform="translate(472,277)"/>
<path d="M0 0 C5.75 -0.125 5.75 -0.125 8 1 C8 1.66 8 2.32 8 3 C5.29120665 4.35439668 2.99066732 4.06501451 0 4 C0 2.68 0 1.36 0 0 Z " fill="#312F26" transform="translate(136,169)"/>
<path d="M0 0 C1.98 0 3.96 0 6 0 C5.34 0.66 4.68 1.32 4 2 C4.99 2.33 5.98 2.66 7 3 C7.625 5.875 7.625 5.875 8 9 C7.34 9.66 6.68 10.32 6 11 C5.62875 9.6078125 5.62875 9.6078125 5.25 8.1875 C3.91303807 4.77824707 2.94881621 3.96587748 0 2 C0 1.34 0 0.68 0 0 Z " fill="#FCF8E1" transform="translate(66,287)"/>
<path d="M0 0 C0.99 0 1.98 0 3 0 C2.54554036 1.41791408 2.08625056 2.83428046 1.625 4.25 C1.36976562 5.03890625 1.11453125 5.8278125 0.8515625 6.640625 C0.04826333 8.86627958 -0.89711662 10.90931672 -2 13 C-2.16682272 8.07872966 -2.24828052 4.49656104 0 0 Z " fill="#FDF9E0" transform="translate(41,283)"/>
<path d="M0 0 C2.19505282 0.92050602 3.38616281 2.02846223 4.9375 3.8125 C4.2775 3.8125 3.6175 3.8125 2.9375 3.8125 C2.9375 5.4625 2.9375 7.1125 2.9375 8.8125 C2.6075 8.8125 2.2775 8.8125 1.9375 8.8125 C1.6075 7.1625 1.2775 5.5125 0.9375 3.8125 C-1.3725 3.1525 -3.6825 2.4925 -6.0625 1.8125 C-3.8753711 0.48460031 -2.58529544 -0.23502686 0 0 Z " fill="#403A2E" transform="translate(105.0625,177.1875)"/>
<path d="M0 0 C0 0.99 0 1.98 0 3 C-0.99 3 -1.98 3 -3 3 C-3.33 3.99 -3.66 4.98 -4 6 C-4.66 5.67 -5.32 5.34 -6 5 C-6 4.01 -6 3.02 -6 2 C-6.66 1.67 -7.32 1.34 -8 1 C-5.07175348 0.02391783 -3.04386724 -0.08226668 0 0 Z " fill="#AF9448" transform="translate(99,176)"/>
<path d="M0 0 C1.65 0 3.3 0 5 0 C4.01 0.66 3.02 1.32 2 2 C1.49368413 4.13048442 1.49368413 4.13048442 1.4375 6.5 C1.20754717 10.79245283 1.20754717 10.79245283 -1 13 C-1.07654536 8.48382401 -1.10228696 4.40914783 0 0 Z " fill="#FDF8E3" transform="translate(96,179)"/>
<path d="M0 0 C1.65 0.33 3.3 0.66 5 1 C4.67 2.32 4.34 3.64 4 5 C2.35 4.67 0.7 4.34 -1 4 C-0.67 2.68 -0.34 1.36 0 0 Z " fill="#B08316" transform="translate(66,293)"/>
<path d="M0 0 C0 0.99 0 1.98 0 3 C-2.97 3 -5.94 3 -9 3 C-9 2.34 -9 1.68 -9 1 C-5.8035914 -0.06546953 -3.34252724 -0.07427838 0 0 Z " fill="#B38313" transform="translate(72,270)"/>
<path d="M0 0 C3 3.75 3 3.75 3 6 C2.01 5.67 1.02 5.34 0 5 C-0.99 6.485 -0.99 6.485 -2 8 C-2.66 8 -3.32 8 -4 8 C-3 5 -3 5 -2 3 C-1.34 3 -0.68 3 0 3 C0 2.01 0 1.02 0 0 Z " fill="#B69F53" transform="translate(94,205)"/>
<path d="M0 0 C1.65 0 3.3 0 5 0 C5 2.31 5 4.62 5 7 C2.65941363 4.87219421 1.29299694 2.88437779 0 0 Z " fill="#FCFBE9" transform="translate(86,192)"/>
<path d="M0 0 C2.64 0 5.28 0 8 0 C7.67 0.99 7.34 1.98 7 3 C5.125 3.8125 5.125 3.8125 3 4 C2.01 3.34 1.02 2.68 0 2 C0 1.34 0 0.68 0 0 Z " fill="#FAF0D2" transform="translate(64,298)"/>
<path d="M0 0 C0.625 1.875 0.625 1.875 1 4 C0.34 4.66 -0.32 5.32 -1 6 C-1.99 6 -2.98 6 -4 6 C-4 5.01 -4 4.02 -4 3 C-2 1.3125 -2 1.3125 0 0 Z " fill="#BBA55A" transform="translate(89,205)"/>
<path d="M0 0 C0.99 0.33 1.98 0.66 3 1 C3 2.32 3 3.64 3 5 C1.68 5 0.36 5 -1 5 C-0.67 3.35 -0.34 1.7 0 0 Z " fill="#B3850E" transform="translate(57,286)"/>
</svg>
